<svg width="67" height="23" viewBox="0 0 67 23" fill="none" xmlns="http://www.w3.org/2000/svg">
<path d="M14.9829 16.08C13.9269 17.352 8.81629 17.5 6.89629 17.5C3.10429 17.5 0.800293 15.052 0.800293 11.5C0.800293 7.972 3.12829 5.524 6.89629 5.524C8.72029 5.524 13.9749 6.72 15.0309 7.992L9.63229 9.484C8.86429 8.644 8.02429 8.308 6.89629 8.308C5.28829 8.308 3.89629 9.604 3.89629 11.5C3.89629 13.564 5.19229 14.716 6.89629 14.716C7.90429 14.716 9.05629 14.332 9.68029 13.54L14.9829 16.08Z" fill="white"/>
<path d="M29.6038 6.312L22.6198 22.872H19.1878L21.4198 17.712L16.5958 6.312H20.0038L22.4038 12.408L23.0998 14.592L23.7718 12.408L26.1718 6.312H29.6038Z" fill="white"/>
<path d="M37.4497 8.856C35.7217 8.856 34.4737 10.176 34.4737 11.976C34.4737 13.752 35.7217 15.072 37.4497 15.072C39.1297 15.072 40.2817 13.824 40.2817 11.976C40.2817 10.104 39.1297 8.856 37.4497 8.856ZM31.4737 17.592V0H34.5217V6.264L34.4737 7.08C34.9777 6.408 36.5137 6.024 37.5697 6.024C41.3377 6.024 43.4498 8.784 43.4498 11.976C43.4498 15.576 41.2897 17.904 37.5697 17.904C36.6577 17.904 35.1937 17.472 34.5937 16.752L34.6177 17.4V17.592H31.4737Z" fill="white"/>
<path d="M56.138 16.152C55.25 17.304 53.2101 18 51.4581 18C47.6421 18 45.5061 15.384 45.5061 12C45.5061 8.544 47.6181 6.024 51.3381 6.024C55.0341 6.024 57.146 8.544 57.146 12C57.146 12.384 57.146 12.624 57.122 12.96H48.6261C48.7941 14.376 49.8501 15.264 51.4581 15.264C52.6101 15.264 53.69 14.88 54.362 14.136L56.138 16.152ZM48.6741 10.896H53.954C53.81 9.624 52.7541 8.76 51.3381 8.76C49.9221 8.76 48.7941 9.624 48.6741 10.896Z" fill="white"/>
<path d="M65.5518 9.144C64.9278 8.928 64.3759 8.856 63.7279 8.856C63.2959 8.856 62.9358 8.88 62.5998 9.024V17.592H59.5039V6.816C60.4399 6.336 62.0478 6 63.6078 6C64.2798 6 65.4799 6.072 66.1999 6.336L65.5518 9.144Z" fill="white"/>
</svg>
