<svg width="16" height="16" viewBox="0 0 16 16" fill="none" xmlns="http://www.w3.org/2000/svg">
<g clip-path="url(#clip0_4603_2394)">
<path d="M8.00016 14.6668C6.57067 14.6668 5.54198 14.6661 4.73996 14.5883C3.94713 14.5115 3.43996 14.3638 3.03521 14.1095C2.57261 13.8188 2.18144 13.4277 1.89077 12.9651C1.63653 12.5604 1.48875 12.0532 1.41198 11.2604C1.3342 10.4583 1.3335 9.42966 1.3335 8.00016C1.3335 6.57067 1.3342 5.54198 1.41198 4.73996C1.48875 3.94713 1.63653 3.43996 1.89077 3.03521C2.18143 2.5726 2.5726 2.18143 3.03521 1.89077C3.43996 1.63653 3.94713 1.48875 4.73996 1.41198C5.54188 1.3342 6.57057 1.3335 8.00016 1.3335C9.42966 1.3335 10.4583 1.3342 11.2604 1.41198C12.0532 1.48875 12.5604 1.63653 12.9651 1.89077C13.4277 2.18144 13.8188 2.57261 14.1095 3.03521C14.3638 3.43996 14.5115 3.94713 14.5883 4.73996C14.6661 5.54198 14.6668 6.57067 14.6668 8.00016C14.6668 9.42966 14.6661 10.4583 14.5883 11.2604C14.5115 12.0532 14.3638 12.5604 14.1095 12.9651C13.8188 13.4277 13.4277 13.8188 12.9651 14.1095C12.5604 14.3638 12.0532 14.5115 11.2604 14.5883C10.4583 14.6661 9.42966 14.6668 8.00016 14.6668Z" fill="white" stroke="white" stroke-width="2"/>
<path d="M8.00016 11.3333C9.47292 11.3333 10.6668 10.1394 10.6668 8.66667C10.6668 7.19391 9.47292 6 8.00016 6C6.5274 6 5.3335 7.19391 5.3335 8.66667C5.3335 10.1394 6.5274 11.3333 8.00016 11.3333Z" fill="white" stroke="black" stroke-width="2"/>
<path d="M11.25 5.5C11.6642 5.5 12 5.16421 12 4.75C12 4.33579 11.6642 4 11.25 4C10.8358 4 10.5 4.33579 10.5 4.75C10.5 5.16421 10.8358 5.5 11.25 5.5Z" fill="black"/>
</g>
<defs>
<clipPath id="clip0_4603_2394">
<rect width="16" height="16" fill="white"/>
</clipPath>
</defs>
</svg>
